<svg width="111" height="30" viewBox="0 0 111 30" fill="none" xmlns="http://www.w3.org/2000/svg">
<path opacity="0.5" d="M24.8242 6.09668C23.8252 6.09668 23.1289 5.6224 22.7354 4.67383C21.2822 4.67383 19.6878 5.02702 17.9521 5.7334C16.8724 6.17741 16.1458 6.5861 15.7725 6.95947C15.3991 7.33285 15.1973 7.62549 15.167 7.8374C15.1468 8.04932 15.2528 8.23096 15.4849 8.38232C15.717 8.5236 16.0399 8.65983 16.4536 8.79102C16.8774 8.9222 17.3669 9.05339 17.9219 9.18457C20.8281 9.86068 22.6698 10.3299 23.4468 10.5923C24.9907 11.1069 26.1462 11.672 26.9131 12.2876C27.6396 12.9032 28.0029 13.7407 28.0029 14.8003C28.0029 15.6782 27.7305 16.4199 27.1855 17.0254C26.6507 17.6309 25.9393 18.1707 25.0513 18.645C24.1632 19.1193 23.1693 19.5431 22.0693 19.9165C20.9795 20.2798 19.8241 20.5926 18.603 20.855C17.3921 21.1174 16.1963 21.3343 15.0156 21.5059C12.7048 21.8288 10.7319 21.9902 9.09717 21.9902C6.12028 21.9902 3.82454 21.632 2.20996 20.9155C1.60449 20.6431 1.11003 19.9619 0.726562 18.8721C0.423828 17.974 0.272461 17.2373 0.272461 16.6621C0.272461 16.0768 0.322917 15.7539 0.423828 15.6934C0.52474 15.6328 0.731608 15.6328 1.04443 15.6934C1.35726 15.7438 1.76595 15.8346 2.27051 15.9658L4.08691 16.4502C6.90234 17.1566 9.87923 17.5098 13.0176 17.5098C15.3285 17.5098 17.2861 17.3029 18.8906 16.8892C19.8392 16.6369 20.3438 16.3543 20.4043 16.0415C20.4447 15.769 19.6979 15.431 18.1641 15.0273C17.4678 14.8356 16.6605 14.6338 15.7422 14.4219C11.292 13.3421 8.60775 12.6458 7.68945 12.333C6.77116 12.0202 6.17074 11.7427 5.88818 11.5005C5.61572 11.2583 5.38867 10.9909 5.20703 10.6982C4.87402 10.123 4.70752 9.57812 4.70752 9.06348C4.70752 8.53874 4.73275 8.13509 4.7832 7.85254C4.84375 7.56999 4.92448 7.30762 5.02539 7.06543C5.2373 6.57096 5.50472 6.23291 5.82764 6.05127C8.42106 4.59814 12.2305 3.32161 17.2559 2.22168C21.7262 1.23275 25.4045 0.738281 28.2905 0.738281C28.8758 0.738281 29.3148 0.839193 29.6074 1.04102C30.112 1.41439 30.334 1.81299 30.2734 2.23682C30.2129 2.66064 30.0817 3.0542 29.8799 3.41748C29.6882 3.77067 29.446 4.09359 29.1533 4.38623C28.8607 4.66878 28.5327 4.92106 28.1694 5.14307C27.8162 5.35498 27.4479 5.53158 27.0645 5.67285C26.2975 5.9554 25.5508 6.09668 24.8242 6.09668ZM35.2922 17.54C35.6252 17.3988 36.0894 17.1768 36.6847 16.874C40.3276 15.0072 42.3257 13.9779 42.6789 13.7861L43.3146 13.438C43.9706 13.0142 44.2733 12.6812 44.2228 12.439C44.1118 11.9243 43.8343 11.7174 43.3903 11.8184C42.9463 11.9092 42.4821 12.0353 41.9977 12.1968C41.5235 12.3582 41.0189 12.555 40.4841 12.7871C39.3639 13.2513 38.3801 13.7155 37.5324 14.1797C34.5656 15.8851 32.7795 16.9194 32.174 17.2827C31.7401 18.2616 31.3516 19.2354 31.0085 20.2041L29.1769 25.3809C28.6017 26.9854 28.0215 28.0701 27.4362 28.6353C27.1234 28.9481 26.7752 29.1045 26.3918 29.1045C25.4432 29.1045 24.6965 28.7715 24.1515 28.1055C23.6066 27.4495 23.3342 26.612 23.3342 25.5928C23.3342 24.5837 23.4653 23.5846 23.7277 22.5957C23.9901 21.6169 24.3534 20.6229 24.8176 19.6138C25.756 17.5754 27.0124 15.6732 28.5866 13.9072C29.5453 11.334 31.1397 8.83643 33.3698 6.41455C34.7321 4.94124 35.9985 3.90186 37.1691 3.29639C37.7544 2.99365 38.2539 2.84229 38.6677 2.84229C39.0814 2.84229 39.3942 2.93815 39.6061 3.12988C39.818 3.31152 39.924 3.54362 39.924 3.82617C39.924 4.09863 39.8382 4.44678 39.6667 4.87061C39.4951 5.29443 39.263 5.76872 38.9704 6.29346C38.6777 6.8182 38.3346 7.37826 37.9411 7.97363L36.6847 9.80518C36.5838 9.95654 36.5334 10.0928 36.5334 10.2139C36.5334 10.4056 36.6494 10.5015 36.8815 10.5015C37.1439 10.5015 37.6283 10.335 38.3346 10.002L40.7565 8.88184C42.8757 7.92318 44.904 7.44385 46.8415 7.44385C47.8506 7.44385 48.7992 7.92318 49.6872 8.88184C50.5853 9.85059 51.0344 10.89 51.0344 12C51.0344 13.7155 50.333 15.0374 48.9304 15.9658L47.0534 17.207C46.3773 17.6309 45.681 18.0496 44.9645 18.4634L42.7848 19.6592C40.3327 20.9307 38.4356 21.5664 37.0934 21.5664C35.7614 21.5664 34.7927 21.3999 34.1872 21.0669C33.5817 20.7339 33.279 20.2646 33.279 19.6592C33.279 18.8418 33.95 18.1354 35.2922 17.54ZM75.9579 9.95654C76.2808 9.95654 76.4422 10.229 76.4422 10.7739C76.4422 11.7124 75.7863 12.9284 74.4745 14.4219L73.6117 15.2998C70.9981 17.9134 68.5358 19.6541 66.225 20.522C64.792 21.0568 63.7627 21.0316 63.1371 20.4463C62.6224 19.9518 62.2137 19.1546 61.911 18.0547L61.5477 16.7378L58.3236 18.7207L56.4618 19.7803C54.2417 20.9912 52.5767 21.5967 51.4667 21.5967C50.0438 21.5967 48.8581 21.0467 47.9095 19.9468C47.0013 18.9074 46.5472 17.7015 46.5472 16.3291C46.5472 14.9769 47.0871 13.771 48.1669 12.7114C49.7108 11.1978 52.1478 9.81022 55.4779 8.54883C58.6263 7.36816 61.1693 6.77783 63.1068 6.77783C63.7627 6.77783 64.0907 7.10075 64.0907 7.74658C64.0907 8.19059 64.0049 8.5236 63.8334 8.74561C63.6618 8.96761 63.3086 9.19466 62.7738 9.42676L60.8666 10.2441C58.041 11.4248 55.9724 12.6509 54.6605 13.9224C54.2871 14.2756 54.1004 14.6187 54.1004 14.9517C54.1004 15.2847 54.3679 15.4512 54.9027 15.4512C55.4274 15.4512 56.6485 14.8861 58.5658 13.7559L59.8221 13.0142C61.7697 11.8436 63.3994 11.2583 64.7113 11.2583C65.8213 11.2583 66.558 11.7477 66.9212 12.7266C67.0121 12.9889 67.0978 13.2563 67.1786 13.5288C67.2593 13.7912 67.34 14.0283 67.4208 14.2402C67.6024 14.7347 67.7639 14.9819 67.9051 14.9819C68.0565 14.9819 68.2684 14.9113 68.5409 14.77C68.8133 14.6187 69.111 14.432 69.4339 14.21C69.767 13.9779 70.1101 13.7256 70.4632 13.4531L72.2948 11.9849C73.9195 10.6326 75.1405 9.95654 75.9579 9.95654ZM93.4341 11.561C93.4341 12.0353 92.8135 12.9536 91.5723 14.3159C90.3008 15.6984 89.0546 16.8236 87.8335 17.6914C85.4722 19.4473 82.8536 20.6481 79.9776 21.2939C78.8877 21.5462 77.8534 21.6724 76.8745 21.6724C75.9058 21.6724 75.0985 21.5866 74.4527 21.415C73.8169 21.2536 73.2417 21.0366 72.7271 20.7642C72.2225 20.4816 71.7836 20.1587 71.4102 19.7954C71.0368 19.4321 70.724 19.0487 70.4717 18.645C69.9773 17.8579 69.73 17.1313 69.73 16.4653C69.73 15.7993 69.8057 15.214 69.9571 14.7095C70.0983 14.2049 70.3002 13.7256 70.5625 13.2715C71.4808 11.6165 73.3275 10.1533 76.1026 8.88184C78.2924 7.86263 80.3812 7.20166 82.3692 6.89893C83.2269 6.76774 83.8374 6.70215 84.2007 6.70215C84.564 6.70215 84.8667 6.74251 85.1089 6.82324C85.3612 6.89388 85.5782 6.99479 85.7598 7.12598C86.1634 7.41862 86.3653 7.81722 86.3653 8.32178C86.3653 8.82633 86.2341 9.30566 85.9717 9.75977C85.7093 10.2038 85.3763 10.5771 84.9727 10.8799C84.1856 11.4652 83.3077 11.7578 82.3389 11.7578C81.017 11.7578 79.9271 11.5863 79.0694 11.2432C78.474 11.4551 77.9694 11.8436 77.5557 12.4087C77.2126 12.8729 77.0411 13.2917 77.0411 13.665C77.0411 14.0283 77.1218 14.3866 77.2832 14.7397C77.4548 15.0828 77.6919 15.3906 77.9947 15.6631C78.6607 16.2484 79.4629 16.541 80.4014 16.541C82.5811 16.541 85.119 15.3856 88.0152 13.0747L89.3926 12C90.8457 10.89 91.8801 10.335 92.4956 10.335C93.1213 10.335 93.4341 10.7437 93.4341 11.561ZM109.911 10.1987C110.396 10.1987 110.638 10.4712 110.638 11.0161C110.638 11.3794 110.512 11.8385 110.259 12.3936C110.017 12.9385 109.664 13.4531 109.2 13.9375C108.736 14.4118 108.201 14.9062 107.595 15.4209C107 15.9355 106.299 16.4754 105.491 17.0405C104.694 17.6056 103.811 18.1657 102.842 18.7207C101.874 19.2757 100.844 19.7752 99.7546 20.2192C97.3428 21.2082 95.0067 21.7026 92.7463 21.7026C91.0207 21.7026 89.5121 21.2536 88.2204 20.3555C86.8682 19.417 86.1921 18.2767 86.1921 16.9346C86.1921 14.8255 87.3274 12.8224 89.5979 10.9253C91.5556 9.29053 93.8614 8.02409 96.5154 7.12598C98.1299 6.58105 99.4973 6.30859 100.617 6.30859C101.526 6.30859 102.293 6.5306 102.918 6.97461C103.584 7.45898 103.917 8.10986 103.917 8.92725C103.917 10.2088 102.903 11.6266 100.875 13.1807C100.552 13.4329 100.259 13.6449 99.9968 13.8164L99.4519 14.1797C98.4428 14.8861 96.9089 15.6782 94.8503 16.5562C95.4861 16.8892 96.0764 17.0557 96.6213 17.0557C97.1763 17.0557 97.6708 16.9901 98.1047 16.8589C98.5487 16.7277 99.0482 16.541 99.6032 16.2988C100.158 16.0566 100.749 15.769 101.374 15.436C102.01 15.0929 102.651 14.7196 103.297 14.3159C104.74 13.4178 105.991 12.4995 107.051 11.561C107.606 11.0464 108.312 10.6377 109.17 10.335C109.452 10.2441 109.699 10.1987 109.911 10.1987ZM93.2155 14.4521L94.0481 14.0283C94.3205 13.887 94.5627 13.7559 94.7746 13.6348C96.813 12.4642 97.9735 11.7427 98.2561 11.4702C98.5386 11.1978 98.6799 11.0111 98.6799 10.9102C98.6799 10.7992 98.6496 10.673 98.5891 10.5317C98.5285 10.3905 98.4478 10.2643 98.3469 10.1533C98.1047 9.87077 97.8474 9.72949 97.5749 9.72949C97.3025 9.72949 96.9997 9.77995 96.6667 9.88086C96.3438 9.98177 96.0158 10.123 95.6828 10.3047C95.3498 10.4762 95.0269 10.6882 94.7141 10.9404C94.4113 11.1826 94.1439 11.445 93.9118 11.7275C93.377 12.3633 93.1096 12.9132 93.1096 13.3774C93.1096 13.8416 93.1449 14.1999 93.2155 14.4521Z" fill="white"/>
</svg>
